<svg xmlns="http://www.w3.org/2000/svg" xmlns:xlink="http://www.w3.org/1999/xlink" width="90" height="90" viewBox="0 0 90 90"><defs><linearGradient id="b" y2="-.063" x2=".469" gradientTransform="translate(-331.42 73.067)" y1=".932" x1=".469"><stop offset="0"/><stop stop-color="#747474" offset="1"/></linearGradient><linearGradient id="a" y2=".65" x2=".778" gradientTransform="translate(1.754)" y1="-.288" x1="-2.176"><stop stop-color="#fff" offset="0"/><stop stop-color="#fff" offset="1"/></linearGradient><radialGradient id="d" gradientUnits="userSpaceOnUse" cy="33.696" cx="-165.24" gradientTransform="translate(1.235)" r="21.607" xlink:href="#a"><stop stop-color="#ffeed6" offset="0"/><stop stop-color="#ffcd8b" offset="1"/></radialGradient><radialGradient id="c" gradientUnits="userSpaceOnUse" cy="72.644" cx="-164.86" gradientTransform="translate(1.235)" r="15.009"><stop stop-color="#ffeed6" offset="0"/><stop stop-color="#ffcd8b" offset="1"/></radialGradient></defs><path d="M63.613 24.887c1.298-9.606-3.625-22.636-17.305-22.92-17.75-.366-21.05 13.421-20.151 23.715 1.096 12.536 35.175 16.084 37.456-.795z"/><path fill="url(#b)" d="M-223.91 95.621c2.449-6.763 3.534-19.316 11.965-23.508l39.107-8.367 40.844 7.764c7.187 2.58 10.584 16.564 14.02 24.487-2.238 1.606-4.167 3.986-6.829 4.534h-92.678c-3.01-1.117-4.534-3.125-6.429-4.91z" transform="matrix(.8099 0 0 .87317 183.94 2.438)"/><path fill="url(#c)" d="M-184.35 55.085c.208 5.06-.991 7.976-3.361 12.264 9.229 16.963 33.15 8.219 32.526-.478l-2.647-14.464-26.518 2.678z" transform="matrix(.8099 0 0 .87317 183.94 2.438)"/><path fill="url(#d)" d="M-150.61 27.913c-.51 7.997-.734 17.748-2.525 25.745 0 0-8.144 7.403-12.69 9.42s-5.818 1.745-10.102-.062c-4.283-1.808-14.205-8.853-14.205-8.853-4.264-17.29-5.723-35.412 13.258-45.064l5.62 6.675c2.08 2.47 11.21 6.309 14.659 3.016 2.722-2.6 4.384 6.931 5.985 9.123z" transform="matrix(.8099 0 0 .87317 183.94 2.438)"/><path fill="url(#a)" d="M-191.12 29.284c-.707 8.016.464 15.673 2.239 23.852 4.893 3.953 8.601 9.167 18.813 7.08 3.497-.796 2.2-2.468 4.209-3.477-12.072 3.587-14.042 1.05-20.264-6.253l-4.108-23.874-.889 2.672z" transform="matrix(.8099 0 0 .87317 183.94 2.438)"/></svg>