<?xml version="1.0" encoding="UTF-8" standalone="no"?>
<svg
   xmlns:dc="http://purl.org/dc/elements/1.1/"
   xmlns:cc="http://creativecommons.org/ns#"
   xmlns:rdf="http://www.w3.org/1999/02/22-rdf-syntax-ns#"
   xmlns:svg="http://www.w3.org/2000/svg"
   xmlns="http://www.w3.org/2000/svg"
   xmlns:xlink="http://www.w3.org/1999/xlink"
   xmlns:sodipodi="http://sodipodi.sourceforge.net/DTD/sodipodi-0.dtd"
   xmlns:inkscape="http://www.inkscape.org/namespaces/inkscape"
   width="90"
   height="90"
   viewBox="0 0 90 90"
   id="svg2"
   version="1.1"
   inkscape:version="0.91 r13725"
   sodipodi:docname="avatar.svg">
  <metadata
     id="metadata30">
    <rdf:RDF>
      <cc:Work
         rdf:about="">
        <dc:format>image/svg+xml</dc:format>
        <dc:type
           rdf:resource="http://purl.org/dc/dcmitype/StillImage" />
      </cc:Work>
    </rdf:RDF>
  </metadata>
  <sodipodi:namedview
     pagecolor="#ffffff"
     bordercolor="#666666"
     borderopacity="1"
     objecttolerance="10"
     gridtolerance="10"
     guidetolerance="10"
     inkscape:pageopacity="0"
     inkscape:pageshadow="2"
     inkscape:window-width="686"
     inkscape:window-height="480"
     id="namedview28"
     showgrid="false"
     inkscape:zoom="2.6222222"
     inkscape:cx="45"
     inkscape:cy="45"
     inkscape:window-x="0"
     inkscape:window-y="0"
     inkscape:window-maximized="0"
     inkscape:current-layer="svg2" />
  <defs
     id="defs4">
    <linearGradient
       id="linearGradient17195"
       y2="-.06311"
       x2=".46868"
       gradientTransform="translate(-331.42 73.067)"
       y1=".93205"
       x1=".46895">
      <stop
         id="stop11789"
         offset="0" />
      <stop
         id="stop11791"
         stop-color="#747474"
         offset="1" />
    </linearGradient>
    <linearGradient
       id="linearGradient17207"
       y2=".64985"
       x2=".77774"
       gradientTransform="translate(1.754)"
       y1="-.28807"
       x1="-2.1761">
      <stop
         id="stop14505"
         stop-color="#fff"
         offset="0" />
      <stop
         id="stop14507"
         stop-color="#fff"
         offset="1" />
    </linearGradient>
    <linearGradient
       id="linearGradient17191"
       y2=".69923"
       x2=".49090"
       gradientTransform="translate(-198.23 52.32)"
       y1="1.4793"
       x1="-.38982">
      <stop
         id="stop5485"
         stop-color="#664314"
         offset="0" />
      <stop
         id="stop5487"
         stop-color="#a06b08"
         offset="1" />
    </linearGradient>
    <radialGradient
       id="radialGradient17201"
       gradientUnits="userSpaceOnUse"
       cy="33.695999"
       cx="-165.24001"
       gradientTransform="translate(1.2347,1.438e-7)"
       r="21.607"
       xlink:href="#linearGradient17207">
      <stop
         id="stop13599"
         stop-color="#ffeed6"
         offset="0" />
      <stop
         id="stop13601"
         stop-color="#ffcd8b"
         offset="1" />
    </radialGradient>
    <radialGradient
       id="radialGradient17197"
       gradientUnits="userSpaceOnUse"
       cy="72.644"
       cx="-164.86"
       gradientTransform="translate(1.2347 1.438e-7)"
       r="15.009">
      <stop
         id="stop17174"
         stop-color="#ffeed6"
         offset="0" />
      <stop
         id="stop17176"
         stop-color="#ffcd8b"
         offset="1" />
    </radialGradient>
  </defs>
  <g
     id="layer1">
    <g
       id="g17180"
       transform="matrix(.80990 0 0 .87317 183.94 2.4375)">
      <path
         id="path12688"
         fill="url(#linearGradient17191)"
         d="m-148.57 25.71c1.602-11.001-4.476-25.924-21.367-26.248-21.917-0.42057-25.992 15.37-24.881 27.159 1.353 14.357 43.432 18.42 46.248-0.9104z"
         style="fill:#000000" />
      <path
         id="tshirt"
         fill="url(#linearGradient17195)"
         d="m-223.91 95.621c2.449-6.7627 3.534-19.316 11.965-23.508l39.107-8.3671 40.844 7.7637c7.187 2.5802 10.584 16.564 14.02 24.487-2.238 1.6068-4.167 3.9865-6.829 4.5342h-92.678c-3.01-1.1164-4.534-3.1244-6.429-4.9103z" />
      <path
         id="path12694"
         fill="url(#radialGradient17197)"
         d="m-184.35 55.085c0.20799 5.0595-0.991 7.9755-3.361 12.264 9.229 16.963 33.15 8.2188 32.526-0.4782l-2.647-14.464-26.518 2.6785z" />
      <path
         id="path12696"
         fill="url(#radialGradient17201)"
         d="m-150.61 27.913c-0.51 7.9971-0.73399 17.748-2.525 25.745 0 0-8.144 7.403-12.69 9.4209s-5.818 1.7442-10.102-0.063099c-4.283-1.8075-14.205-8.8527-14.205-8.8527-4.264-17.29-5.723-35.412 13.258-45.064l5.62 6.6745c2.08 2.4696 11.21 6.309 14.659 3.0162 2.722-2.5989 4.384 6.9312 5.985 9.1233z"
         style="fill-opacity:1.0" />
      <path
         id="path13605"
         fill="url(#linearGradient17207)"
         d="m-191.12 29.284c-0.70698 8.0159 0.464 15.673 2.239 23.852 4.893 3.9527 8.601 9.1673 18.813 7.0808 3.497-0.7969 2.2-2.4684 4.209-3.4778-12.072 3.5866-14.042 1.0503-20.264-6.2529l-4.108-23.874-0.889 2.6715z" />
    </g>
  </g>
</svg>
