<svg xmlns="http://www.w3.org/2000/svg" width="251.851" height="356.044" viewBox="0 0 236.1106 333.79103"><path d="M185.025.5v12.34h-19.598l20.38 22.115V45.48H143.83V33.157h20.377L143.83 11.042V.5zM135.51.5v12.34h-19.597l20.38 22.115V45.48H94.314V33.157h20.378L94.315 11.042V.5zM50.304 45.48V.5H86.48v12.842H65.333V32.64H86.48v12.84z" stroke="#fae9e9"/><path fill="#1673b6" d="M0 66.016h236.11l-21.509 240.969-96.69 26.806-96.423-26.767z"/><path fill="#35a9db" d="M118.056 85.722v227.58l78.13-21.66 18.381-205.92z"/><path fill="#fff" d="M157.17 173.038l2.7-30.268h-41.815v-29.56h74.12l-.708 7.93-7.266 81.455h-66.146v-29.557z"/><path fill="#ebebeb" d="M57.548 263.787l60.548 16.81.136-.04v-30.755l-.128.038-32.92-8.89-2.105-23.574H53.407z"/><path fill="#fff" d="M118.13 249.829v30.752l60.597-16.794.445-4.993 5.141-57.45h-29.656l-3.56 39.586z"/><path fill="#ebebeb" d="M118.158 131.569v11.201H46.759l-.592-6.644-1.347-14.985-.707-7.931h74.045zm-.103 59.831v11.2H85.552l-.592-6.642-1.347-14.985-.707-7.93h35.15z"/></svg>