<?xml version="1.0" encoding="UTF-8" standalone="no"?>
<!-- Created with Inkscape (http://www.inkscape.org/) -->

<svg
   xmlns:dc="http://purl.org/dc/elements/1.1/"
   xmlns:cc="http://creativecommons.org/ns#"
   xmlns:rdf="http://www.w3.org/1999/02/22-rdf-syntax-ns#"
   xmlns:svg="http://www.w3.org/2000/svg"
   xmlns="http://www.w3.org/2000/svg"
   xmlns:sodipodi="http://sodipodi.sourceforge.net/DTD/sodipodi-0.dtd"
   xmlns:inkscape="http://www.inkscape.org/namespaces/inkscape"
   width="66.635658mm"
   height="94.203247mm"
   viewBox="0 0 236.1106 333.79103"
   id="svg5450"
   version="1.1"
   inkscape:version="0.91 r13725"
   sodipodi:docname="css3.svg">
  <defs
     id="defs5452" />
  <sodipodi:namedview
     id="base"
     pagecolor="#ffffff"
     bordercolor="#666666"
     borderopacity="1.0"
     inkscape:pageopacity="0.0"
     inkscape:pageshadow="2"
     inkscape:zoom="0.35"
     inkscape:cx="-265.51612"
     inkscape:cy="289.75266"
     inkscape:document-units="px"
     inkscape:current-layer="layer1"
     showgrid="false"
     fit-margin-top="0"
     fit-margin-left="0"
     fit-margin-right="0"
     fit-margin-bottom="0"
     inkscape:window-width="1366"
     inkscape:window-height="705"
     inkscape:window-x="-8"
     inkscape:window-y="-8"
     inkscape:window-maximized="1" />
  <metadata
     id="metadata5455">
    <rdf:RDF>
      <cc:Work
         rdf:about="">
        <dc:format>image/svg+xml</dc:format>
        <dc:type
           rdf:resource="http://purl.org/dc/dcmitype/StillImage" />
        <dc:title></dc:title>
      </cc:Work>
    </rdf:RDF>
  </metadata>
  <g
     inkscape:label="Layer 1"
     inkscape:groupmode="layer"
     id="layer1"
     transform="translate(-219.08755,-488.32384)">
    <g
       id="g3091"
       transform="matrix(0.79378253,0,0,0.79378253,-336.9968,373.06018)">
      <g
         id="g3093"
         style="fill:#000000;fill-opacity:1;stroke:#fae9e9;stroke-opacity:1">
        <polygon
           points="933.643,145.838 933.643,161.385 933.643,161.385 908.954,161.385 934.629,189.244 934.629,202.504 881.746,202.504 881.746,186.979 907.416,186.979 881.746,159.119 881.746,145.838 "
           id="polygon3095"
           style="fill:#000000;fill-opacity:1;stroke:#fae9e9;stroke-width:1.25979078;stroke-opacity:1" />
        <polygon
           points="871.265,145.838 871.265,161.385 871.265,161.385 846.576,161.385 872.25,189.244 872.25,202.504 819.367,202.504 819.367,186.979 845.039,186.979 819.367,159.119 819.367,145.838 "
           id="polygon3097"
           style="fill:#000000;fill-opacity:1;stroke:#fae9e9;stroke-width:1.25979078;stroke-opacity:1" />
        <polygon
           points="763.923,202.504 763.923,145.838 809.496,145.838 809.496,162.016 782.856,162.016 782.856,186.329 809.496,186.329 809.496,202.504 "
           id="polygon3099"
           style="fill:#000000;fill-opacity:1;stroke:#fae9e9;stroke-width:1.25979078;stroke-opacity:1" />
      </g>
      <polygon
         points="700.55,228.374 998,228.374 970.903,531.945 849.093,565.715 727.62,531.994 "
         id="polygon3101"
         style="fill:#1673b6" />
      <polygon
         points="849.276,253.2 849.276,539.904 947.703,512.615 970.86,253.2 "
         id="polygon3103"
         style="fill:#35a9db" />
      <g
         id="g3105">
        <polygon
           points="898.551,363.2 901.953,325.068 849.275,325.068 849.275,287.829 849.404,287.829 942.65,287.829 941.758,297.82 932.605,400.436 849.275,400.436 849.275,363.2 "
           id="polygon3107"
           style="fill:#ffffff" />
        <polygon
           points="773.049,477.525 849.326,498.701 849.498,498.652 849.498,459.907 849.336,459.954 807.863,448.754 805.212,419.057 785.061,419.057 767.832,419.057 "
           id="polygon3109"
           style="fill:#ebebeb" />
        <polygon
           points="849.369,459.94 849.369,498.682 925.709,477.525 926.269,471.234 932.746,398.859 895.386,398.859 890.901,448.729 "
           id="polygon3111"
           style="fill:#ffffff" />
        <polygon
           points="849.404,310.957 849.404,324.976 849.404,325.068 759.576,325.068 759.576,325.068 759.457,325.068 758.711,316.698 757.014,297.82 756.123,287.829 849.404,287.829 "
           id="polygon3113"
           style="fill:#ebebeb" />
        <polygon
           points="849.275,386.333 849.275,400.35 849.275,400.441 808.447,400.441 808.447,400.441 808.328,400.441 807.582,392.073 805.885,373.195 804.994,363.204 849.275,363.204 "
           id="polygon3115"
           style="fill:#ebebeb" />
      </g>
    </g>
  </g>
</svg>
