<svg xmlns="http://www.w3.org/2000/svg" width="263.681" height="393.898" viewBox="0 0 247.20052 369.27906"><path fill="#e45126" d="M123.449 349.28L22.497 322.182 0 78.203h247.2l-22.52 243.94z"/><path fill="#f1682b" d="M224.645 98.152H123.6v230.385l81.8-21.927z"/><path fill="#ebebeb" d="M123.6 128.075H46l.742 8.028 7.606 82.46H123.6V188.64H82.65l-2.83-30.642h43.78zm0 138.277l-.135.037-34.466-9-2.204-23.863H55.73l4.335 46.982 63.392 17.016.143-.039z"/><path d="M53.675 145.838h18.924v18.696H89.91v-18.696h18.925v56.618H89.911v-18.958h-17.31v18.958H53.675v-56.618zm80.044 18.776h-16.66v-18.775h52.252v18.775h-16.667v37.843H133.72l-.001-37.843zm43.885-18.776h19.733l12.137 19.894 12.127-19.894h19.739v56.618h-18.846v-28.063l-13.021 20.13h-.325l-13.028-20.13v28.063h-18.517l.001-56.618zm73.154 0h18.929v37.903h26.612v18.714h-45.542l.001-56.617z" transform="matrix(.83107 0 0 .80357 -21.608 -105.292)" fill="#020202" stroke="#fae9e9" stroke-width="1.17"/><path fill="#fff" d="M187.09 188.64h-63.597v29.922h38.108l-3.592 38.806-34.516 9.01v31.133l63.444-17.003.464-5.055 7.273-78.777.754-8.035zm11.055-30.641h.1l.62-6.726 1.41-15.17.74-8.028h-77.522v29.924z"/></svg>