<?xml version="1.0" encoding="UTF-8" standalone="no"?>
<!-- Created with Inkscape (http://www.inkscape.org/) -->

<svg
   xmlns:dc="http://purl.org/dc/elements/1.1/"
   xmlns:cc="http://creativecommons.org/ns#"
   xmlns:rdf="http://www.w3.org/1999/02/22-rdf-syntax-ns#"
   xmlns:svg="http://www.w3.org/2000/svg"
   xmlns="http://www.w3.org/2000/svg"
   xmlns:sodipodi="http://sodipodi.sourceforge.net/DTD/sodipodi-0.dtd"
   xmlns:inkscape="http://www.inkscape.org/namespaces/inkscape"
   width="69.76548mm"
   height="104.21876mm"
   viewBox="0 0 247.20052 369.27906"
   id="svg4853"
   version="1.1"
   inkscape:version="0.91 r13725"
   sodipodi:docname="html5.svg">
  <defs
     id="defs4855" />
  <sodipodi:namedview
     id="base"
     pagecolor="#ffffff"
     bordercolor="#666666"
     borderopacity="1.0"
     inkscape:pageopacity="0.0"
     inkscape:pageshadow="2"
     inkscape:zoom="0.35"
     inkscape:cx="22.819007"
     inkscape:cy="135.38359"
     inkscape:document-units="px"
     inkscape:current-layer="layer1"
     showgrid="false"
     fit-margin-top="0"
     fit-margin-left="0"
     fit-margin-right="0"
     fit-margin-bottom="0"
     inkscape:window-width="871"
     inkscape:window-height="403"
     inkscape:window-x="197"
     inkscape:window-y="220"
     inkscape:window-maximized="0" />
  <metadata
     id="metadata4858">
    <rdf:RDF>
      <cc:Work
         rdf:about="">
        <dc:format>image/svg+xml</dc:format>
        <dc:type
           rdf:resource="http://purl.org/dc/dcmitype/StillImage" />
        <dc:title />
      </cc:Work>
    </rdf:RDF>
  </metadata>
  <g
     inkscape:label="Layer 1"
     inkscape:groupmode="layer"
     id="layer1"
     transform="translate(-279.25689,-302.00839)">
    <g
       id="g3067"
       transform="matrix(0.83106577,0,0,0.80356938,257.64918,196.71629)">
      <polygon
         points="174.543,565.69 53.07,531.97 26,228.35 323.45,228.35 296.352,531.921 "
         id="polygon3069"
         style="fill:#e45126" />
      <polygon
         points="296.31,253.175 174.725,253.175 174.725,539.878 273.152,512.591 "
         id="polygon3071"
         style="fill:#f1682b" />
      <polygon
         points="174.725,290.413 174.596,290.413 81.35,290.413 82.242,300.404 91.394,403.02 174.725,403.02 174.725,365.784 125.45,365.784 122.046,327.652 174.725,327.652 "
         id="polygon3073"
         style="fill:#ebebeb" />
      <polygon
         points="174.725,462.491 174.562,462.538 133.09,451.338 130.438,421.641 110.287,421.641 93.058,421.641 98.275,480.108 174.553,501.284 174.725,501.235 "
         id="polygon3075"
         style="fill:#ebebeb" />
      <g
         id="g3077">
        <path
           d="m 53.675,145.838 18.924,0 0,18.696 17.311,0 0,-18.696 18.925,0 0,56.618 -18.924,0 0,-18.958 -17.31,0 0,18.958 -18.926,0 0,-56.618 0,0 z"
           id="path3079"
           style="fill:#020202;stroke:#fae9e9;stroke-width:1.17045724;stroke-opacity:1"
           inkscape:connector-curvature="0" />
        <path
           d="m 133.719,164.614 -16.66,0 0,-18.775 52.252,0 0,18.775 -16.667,0 0,37.843 -18.924,0 -0.001,-37.843 0,0 z"
           id="path3081"
           style="fill:#020202;stroke:#fae9e9;stroke-width:1.17045724;stroke-opacity:1"
           inkscape:connector-curvature="0" />
        <path
           d="m 177.604,145.838 19.733,0 12.137,19.894 12.127,-19.894 19.739,0 0,56.618 -18.846,0 0,-28.063 -13.021,20.13 -0.325,0 -13.028,-20.13 0,28.063 -18.517,0 0.001,-56.618 0,0 z"
           id="path3083"
           style="fill:#020202;stroke:#fae9e9;stroke-width:1.17045724;stroke-opacity:1"
           inkscape:connector-curvature="0" />
        <path
           d="m 250.758,145.838 18.929,0 0,37.903 26.612,0 0,18.714 -45.542,0 0.001,-56.617 0,0 z"
           id="path3085"
           style="fill:#020202;stroke:#fae9e9;stroke-width:1.17045724;stroke-opacity:1"
           inkscape:connector-curvature="0" />
      </g>
      <polygon
         points="251.12,365.784 174.596,365.784 174.596,403.02 220.45,403.02 216.128,451.312 174.596,462.524 174.596,501.267 250.936,480.108 251.495,473.817 260.246,375.783 261.154,365.784 "
         id="polygon3087"
         style="fill:#ffffff" />
      <polygon
         points="264.423,327.652 264.423,327.652 264.543,327.652 265.29,319.282 266.986,300.404 267.877,290.413 174.596,290.413 174.596,313.541 174.596,327.56 174.596,327.652 "
         id="polygon3089"
         style="fill:#ffffff" />
    </g>
  </g>
</svg>
