<?xml version="1.0" encoding="UTF-8" standalone="no"?>
<!-- Created with Inkscape (http://www.inkscape.org/) -->

<svg
   xmlns:dc="http://purl.org/dc/elements/1.1/"
   xmlns:cc="http://creativecommons.org/ns#"
   xmlns:rdf="http://www.w3.org/1999/02/22-rdf-syntax-ns#"
   xmlns:svg="http://www.w3.org/2000/svg"
   xmlns="http://www.w3.org/2000/svg"
   xmlns:sodipodi="http://sodipodi.sourceforge.net/DTD/sodipodi-0.dtd"
   xmlns:inkscape="http://www.inkscape.org/namespaces/inkscape"
   width="68.842346mm"
   height="97.335075mm"
   viewBox="0 0 243.92957 344.88806"
   id="svg6048"
   version="1.1"
   inkscape:version="0.91 r13725"
   sodipodi:docname="js.svg">
  <defs
     id="defs6050" />
  <sodipodi:namedview
     id="base"
     pagecolor="#ffffff"
     bordercolor="#666666"
     borderopacity="1.0"
     inkscape:pageopacity="0.0"
     inkscape:pageshadow="2"
     inkscape:zoom="0.35"
     inkscape:cx="-227.32093"
     inkscape:cy="112.44403"
     inkscape:document-units="px"
     inkscape:current-layer="layer1"
     showgrid="false"
     fit-margin-top="0"
     fit-margin-left="0"
     fit-margin-right="0"
     fit-margin-bottom="0"
     inkscape:window-width="1366"
     inkscape:window-height="705"
     inkscape:window-x="-8"
     inkscape:window-y="-8"
     inkscape:window-maximized="1" />
  <metadata
     id="metadata6053">
    <rdf:RDF>
      <cc:Work
         rdf:about="">
        <dc:format>image/svg+xml</dc:format>
        <dc:type
           rdf:resource="http://purl.org/dc/dcmitype/StillImage" />
        <dc:title></dc:title>
      </cc:Work>
    </rdf:RDF>
  </metadata>
  <g
     inkscape:label="Layer 1"
     inkscape:groupmode="layer"
     id="layer1"
     transform="translate(-180.89235,-299.91818)">
    <g
       id="g3117"
       transform="matrix(0.82006919,0,0,0.82006919,-117.01828,281.94612)">
      <polygon
         points="660.725,105.132 633.627,408.705 511.818,442.475 390.345,408.754 363.275,105.132 "
         id="polygon3119"
         style="fill:#e4a227" />
      <polygon
         points="511.75,416.287 610.178,389 633.336,129.583 511.75,129.583 "
         id="polygon3121"
         style="fill:#f0bf26" />
      <g
         id="g3123"
         style="fill:#000000;fill-opacity:1">
        <polygon
           points="564.936,22.525 564.936,38.071 564.936,38.071 540.246,38.071 565.922,65.931 565.922,79.191 513.039,79.191 513.039,63.665 538.709,63.665 513.039,35.806 513.039,22.525 "
           id="polygon3125"
           style="fill:#000000;fill-opacity:1;stroke:#fae9e9;stroke-width:1.21940935;stroke-opacity:1" />
        <path
           d="m 503.621,22.55 0,56.617 -45.543,0 0,-18.714 26.613,0 0,-37.903 18.928,0 0.002,0 z"
           id="path3127"
           style="fill:#000000;fill-opacity:1;stroke:#fae9e9;stroke-width:1.21940935;stroke-opacity:1"
           inkscape:connector-curvature="0" />
      </g>
      <polygon
         points="511.521,377.719 511.693,377.67 511.693,338.926 511.531,338.973 470.059,327.773 467.406,298.075 447.256,298.075 430.027,298.075 435.244,356.543 "
         id="polygon3129"
         style="fill:#ebebeb" />
      <polygon
         points="431.059,269.438 430.151,279.437 440.186,279.437 516.709,279.437 516.709,242.2 470.855,242.2 476.232,183.758 516.812,182.677 516.709,143.954 442.565,143.954 439.811,171.403 "
         id="polygon3131"
         style="fill:#ebebeb" />
      <polygon
         points="516.629,143.937 516.457,143.985 516.457,182.729 516.62,182.683 557.291,185.132 560.742,223.579 580.893,223.579 598.123,223.579 591.609,151.633 "
         id="polygon3133"
         style="fill:#ffffff" />
      <polyline
         points="594.284,182.843 591.093,143.954 512.49,143.954 512.49,168.106 512.49,182.746 512.49,182.843    594.284,182.843  "
         id="polyline3135"
         style="fill:#ffffff" />
      <polygon
         points="597.215,252.217 598.123,242.218 588.088,242.218 511.564,242.218 511.564,279.454 557.418,279.454 553.096,327.748 511.564,338.959 511.564,377.701 587.904,356.543 588.463,350.252 "
         id="polygon3137"
         style="fill:#ffffff" />
      <path
         d="M 589.5,181.193"
         id="path3139"
         inkscape:connector-curvature="0"
         style="fill:#ffffff" />
    </g>
  </g>
</svg>
