<svg xmlns="http://www.w3.org/2000/svg" width="260.192" height="367.881" viewBox="0 0 243.92957 344.88806"><path fill="#e4a227" d="M243.93 68.243l-22.223 248.951-99.891 27.694-99.617-27.653L0 68.243z"/><path fill="#f0bf26" d="M121.76 323.412l80.718-22.377 18.99-212.74H121.76z"/><path d="M165.376.5v12.749h-20.248l21.057 22.847V46.97h-43.368V34.238h21.051L122.817 11.39V.5zm-50.283.02v46.43H77.745V31.604H99.57V.52h15.523z" stroke="#fae9e9"/><path fill="#ebebeb" d="M121.572 291.784l.141-.04V259.97l-.133.038-34.01-9.185-2.175-24.354H54.74l4.279 47.948zm-65.984-88.798l-.745 8.2h70.984v-30.537H88.223l4.41-47.927 33.278-.886-.084-31.756H65.023l-2.258 22.51z"/><path fill="#fff" d="M125.76 100.066l-.14.04v31.772l.134-.037 33.353 2.008 2.83 31.53h30.655l-5.342-59.002z"/><path fill="#fff" d="M189.443 131.972l-2.616-31.892h-64.46v31.892h67.076m2.404 56.891l.745-8.2h-70.985V211.2h37.604l-3.545 39.604-34.059 9.194v31.77l62.604-17.35.459-5.16z"/></svg>