<svg xmlns="http://www.w3.org/2000/svg" xmlns:xlink="http://www.w3.org/1999/xlink" width="500" height="500" viewBox="0 0 500 500"><defs><linearGradient id="a"><stop offset="0" stop-color="#565986"/><stop offset="1" stop-color="#242459"/></linearGradient><radialGradient xlink:href="#a" id="b" cx="250" cy="830" fx="250" fy="830" r="250" gradientUnits="userSpaceOnUse" gradientTransform="matrix(1.44147 1.27982 -.66393 .7478 440.696 -110.623)"/></defs><path fill="#1d2d7a" d="M0 0h500v500H0z"/><path fill="url(#b)" d="M0 580h500v500H0z" transform="translate(0 -580)"/><g transform="translate(-28.677 -671.126)"><path d="M274.332 671.126V835.64c0 1.279 1.144 2.308 2.566 2.308h3.559c1.422 0 2.566-1.029 2.566-2.308V671.126z" fill="#c9c9d7"/><circle r="24.045" cy="931.73" cx="278.678" fill="#ffff52"/><rect ry="5.986" y="824.299" x="256.929" height="43.496" width="43.496" fill="#2f2f41"/><path d="M252.171 857.558l-34.856 27.498-61.363 48.409h245.451l-61.362-48.41-34.865-27.503c-11.693-24.21-42.954-23.264-53.005.006z" fill="#444460"/><rect transform="rotate(45)" ry="2.081" y="507.489" x="850.373" height="19.421" width="4.162" fill="#ffff52"/><rect transform="rotate(-45)" ry="2.081" y="902.743" x="-463.532" height="19.421" width="4.162" fill="#ffff52"/><rect ry="2.081" y="972.422" x="275.903" height="19.421" width="4.162" fill="#ffff52"/><path d="M278.678 671.126v262.338H155.95l61.364-48.408 34.865-27.504a34.518 34.518 0 0 1 4.75-7.332v-19.936a5.974 5.974 0 0 1 5.986-5.986h11.416V671.126h4.346z" fill="#fff" fill-opacity=".15"/></g></svg>