<?xml version="1.0" encoding="UTF-8" standalone="no"?>
<!-- Created with Inkscape (http://www.inkscape.org/) -->

<svg
   xmlns:dc="http://purl.org/dc/elements/1.1/"
   xmlns:cc="http://creativecommons.org/ns#"
   xmlns:rdf="http://www.w3.org/1999/02/22-rdf-syntax-ns#"
   xmlns:svg="http://www.w3.org/2000/svg"
   xmlns="http://www.w3.org/2000/svg"
   xmlns:sodipodi="http://sodipodi.sourceforge.net/DTD/sodipodi-0.dtd"
   xmlns:inkscape="http://www.inkscape.org/namespaces/inkscape"
   width="70.05513mm"
   height="99.754532mm"
   viewBox="0 0 248.22684 353.46094"
   id="svg4201"
   version="1.1"
   inkscape:version="0.91 r13725"
   sodipodi:docname="rwd.svg">
  <defs
     id="defs4203">
    <clipPath
       clipPathUnits="userSpaceOnUse"
       id="clipPath2999">
      <path
         inkscape:connector-curvature="0"
         d="M 0,273 632,273 632,0 0,0 0,273 Z"
         id="path3001" />
    </clipPath>
  </defs>
  <sodipodi:namedview
     id="base"
     pagecolor="#ffffff"
     bordercolor="#666666"
     borderopacity="1.0"
     inkscape:pageopacity="0.0"
     inkscape:pageshadow="2"
     inkscape:zoom="0.35"
     inkscape:cx="-316.60087"
     inkscape:cy="205.3019"
     inkscape:document-units="px"
     inkscape:current-layer="layer1"
     showgrid="false"
     fit-margin-top="0"
     fit-margin-left="0"
     fit-margin-right="0"
     fit-margin-bottom="0"
     inkscape:window-width="1366"
     inkscape:window-height="705"
     inkscape:window-x="-8"
     inkscape:window-y="-8"
     inkscape:window-maximized="1" />
  <metadata
     id="metadata4206">
    <rdf:RDF>
      <cc:Work
         rdf:about="">
        <dc:format>image/svg+xml</dc:format>
        <dc:type
           rdf:resource="http://purl.org/dc/dcmitype/StillImage" />
        <dc:title></dc:title>
      </cc:Work>
    </rdf:RDF>
  </metadata>
  <g
     inkscape:label="Layer 1"
     inkscape:groupmode="layer"
     id="layer1"
     transform="translate(-270.1723,-384.20315)">
    <g
       transform="matrix(1.4397473,0,0,-1.4397473,-372.80445,757.10084)"
       id="g2995">
      <g
         id="g2997"
         clip-path="url(#clipPath2999)">
        <g
           id="g3003"
           transform="translate(619,210.0801)">
          <path
             inkscape:connector-curvature="0"
             d="m 0,0 c 0,0 -10.51,-118.91 -16.24,-176.439 -22.92,-6.721 -68.77,-20.141 -70.21,-20.141 -0.95,0 -46.8,13.42 -70.2,20.141 C -161.91,-118.91 -172.41,0 -172.41,0 L 0,0 Z m -15.9,-14.08 -12.84,-151.25 -57.8,-16.481 -0.24,167.731 70.88,0 z"
             style="fill:#25a794;fill-opacity:1;fill-rule:evenodd;stroke:none"
             id="path3005" />
        </g>
        <g
           id="g3007"
           transform="translate(603.2402,196.1699)">
          <path
             inkscape:connector-curvature="0"
             d="M 0,0 -12.801,-152.08 -71.26,-168.38 -71.26,0 0,0 Z"
             style="fill:#73cac3;fill-opacity:1;fill-rule:evenodd;stroke:none"
             id="path3009" />
        </g>
        <g
           id="g3011"
           transform="translate(585.6699,173.3799)">
          <path
             inkscape:connector-curvature="0"
             d="m 0,0 c 0,-0.85 -5.07,-65.319 -5.07,-65.319 l -14.89,0 9.29,-45.241 -26.17,-7.339 -5.06,52.58 -38.56,0.33 6.89,-51.761 -24.129,6.91 L -107.47,0 0,0 Z m -22.99,-42.56 -59.199,0 -1.151,21.86 62.54,-0.23 -2.19,-21.63 z"
             style="fill:#ffffff;fill-opacity:1;fill-rule:evenodd;stroke:none"
             id="path3013" />
        </g>
        <g
           id="g3015"
           transform="translate(569.2793,248.5298)"
           style="fill:#000000;fill-opacity:1;stroke:#fae9e9;stroke-opacity:1">
          <path
             inkscape:connector-curvature="0"
             d="M 0,0 C 0,0 8.471,1.31 9.281,-5.57 10.281,-14.12 0,-12.95 0,-12.95 L 0,0 Z m -10.699,9.31 0.199,-31.57 c 0,0 34,-5.58 30.681,18.82 -2.42,17.8 -30.88,12.75 -30.88,12.75 m -40.58,0.2 -10.901,0 9.891,-31.98 9.49,0 5.449,15.59 5.451,-15.59 9.49,0 10.29,32.18 -11.301,0 -4.239,-15.58 -5.05,15.78 -8.881,0 -5.049,-15.38 -4.64,14.98 z M -81.76,0.4 c 0,0 8.981,1.42 8.781,-3.13 -0.17,-3.96 -8.781,-2.94 -8.781,-2.94 l 0,6.07 z m -10.289,9.31 c -0.41,1.11 0,-31.97 0,-31.97 l 10.49,0 0,9.31 c 0,0 1.11,0.5 8.08,-9.31 0.059,-0.09 12.11,0 12.11,0 l -7.471,11.13 c 0,0 9.891,2.83 5.051,14.77 -3.641,8.95 -27.86,4.96 -28.26,6.07"
             style="fill:#000000;fill-opacity:1;fill-rule:evenodd;stroke:#fae9e9;stroke-opacity:1"
             id="path3017" />
        </g>
      </g>
    </g>
  </g>
</svg>
