<svg xmlns="http://www.w3.org/2000/svg" width="264.775" height="377.025" viewBox="0 0 248.22684 353.46094"><defs><clipPath id="a"><path d="M0 273h632V0H0v273z"/></clipPath></defs><g clip-path="url(#a)" transform="matrix(1.43975 0 0 -1.43975 -642.977 372.898)" fill-rule="evenodd"><path d="M619 210.08S608.49 91.17 602.76 33.641c-22.92-6.72-68.77-20.14-70.21-20.14-.95 0-46.8 13.42-70.2 20.14-5.26 57.53-15.76 176.44-15.76 176.44H619zM603.1 196L590.26 44.75l-57.8-16.48-.24 167.73h70.88z" fill="#25a794"/><path d="M603.24 196.17l-12.8-152.08-58.46-16.3v168.38h71.26z" fill="#73cac3"/><path d="M585.67 173.38c0-.85-5.07-65.32-5.07-65.32h-14.89L575 62.82l-26.17-7.34-5.06 52.58-38.56.33 6.89-51.76-24.13 6.91-9.77 109.84h107.47zm-22.99-42.56h-59.2l-1.15 21.86 62.54-.23-2.19-21.63z" fill="#fff"/><path d="M569.28 248.53s8.47 1.31 9.28-5.57c1-8.55-9.28-7.38-9.28-7.38v12.95zm-10.7 9.31l.2-31.57s34-5.58 30.68 18.82c-2.42 17.8-30.88 12.75-30.88 12.75m-40.58.2h-10.9l9.89-31.98h9.49l5.45 15.59 5.45-15.59h9.49l10.29 32.18h-11.3l-4.24-15.58-5.05 15.78h-8.88l-5.05-15.38-4.64 14.98zm-30.48-9.11s8.98 1.42 8.78-3.13c-.17-3.96-8.78-2.94-8.78-2.94v6.07zm-10.29 9.31c-.41 1.11 0-31.97 0-31.97h10.49v9.31s1.11.5 8.08-9.31c.06-.09 12.11 0 12.11 0l-7.47 11.13s9.89 2.83 5.05 14.77c-3.64 8.95-27.86 4.96-28.26 6.07" stroke="#fae9e9"/></g></svg>