<svg xmlns="http://www.w3.org/2000/svg" width="295" height="296.94" viewBox="-21 -56.5 295 296.94"><path d="M259 143c-2.717 6.479-6.312 11.952-14.492 12.416 4.672-4.273 9.553-8.32 9.34-15.375 1.668.591 3.029 2.818 5.152.959v2z" fill="#BE6E94"/><path d="M191.968 81.091c-.937 3.203-3.489 3.055-6.038 2.907-2.975-.171-4.189.537-4.338 4.176-.109 2.668-.018 7.013-4.537 7.81.982-3.485 1.729-7.06 3-10.436 2.205-5.849 7.449-4.259 11.913-4.457z" fill="#B86C91"/><path d="M160.043 90.036c-4.585.231-9.549-1.215-13.201 3.175-.326.392-.764-.717-.877-1.317 2.947-3.427 8.785-4.198 14.078-1.858z" fill="#AD6E8E"/><path d="M83.026 88.803c4.963-1.352 9.931-1.266 14.904-.054-4.967.471-9.935.452-14.904.054z" fill="#A06E89"/><path d="M194.657 89.88c-1.329-2.624-.438-5.402-.564-8.11 2.235.205 2.771 1.382 2.041 3.406-.557 1.545-.989 3.135-1.477 4.704z" fill="#B86C91"/><path d="M162.688 36.939c-1.117-3.275-1.088-6.551-.011-9.828.557 3.276.589 6.551.011 9.828z" fill="#A3748B"/><path d="M235.745 113.291c-10.841-2.811-21.708-2.338-32.136 1.959-3.283 1.354-4.758.924-6.42-2.305-3.836-7.453-4.664-15.051-2.532-23.065-.731-2.666 1.509-5.538-.563-8.11-.542-.75-1.295-.838-2.126-.679-1.786 1.375-3.896 1.574-6.038 1.665-3.154.133-4.99 1.146-5.26 4.912-.211 2.934-1.1 6.119-3.615 8.315-4.639 8.265-8.603 16.934-14.356 24.951-4.86-8.291-5.173-16.453-2.509-24.875.648-2.054 1.687-4.056-.146-6.022-4.926-1.144-9.661-.848-14.078 1.857-7.275 20.189-16.498 39.488-26.295 58.552-1.2-3.002-.825-5.777-.163-8.49 1.73-7.088 3.578-14.146 5.362-21.223.86-3.409.564-7.533-3.458-7.127-5.6.565-4.213-2.596-4.314-5.398-.299-8.282-5.131-11.714-12.968-9.042-6.518 2.224-11.346 6.826-15.826 11.813-1.341 1.492-2.636 2.97-4.428 3.955a2945.14 2945.14 0 0 0-20.943 11.604c-1.556.873-2.708 1.319-4.295-.28-7.644-7.701-16.899-13.479-25.018-20.605-8.448-7.414-15.52-15.634-13.674-28.244 1.244-8.499 5.501-15.34 11.343-21.153C51.768 35.879 76.604 23.297 104.63 17.28c11.706-2.513 23.806-3.091 35.257 2.216 6.385 2.957 9.731 7.803 9.176 15.034-.852 11.061-7.021 19.206-14.817 26.242-13.582 12.259-29.868 18.461-47.935 19.816-8.103.608-15.907-1.079-22.331-6.689-1.058-.925-1.944-2.935-3.555-1.604-1.34 1.106-.125 2.757.433 4.113.852 2.068 2.423 3.564 4.037 5.004 5.165 4.603 11.348 6.742 18.132 7.39 4.966-.562 9.935-.441 14.904-.054 9.308-.965 18.434-2.886 26.94-6.79 19.639-9.016 33.674-22.906 37.817-45.02-.336-3.276-.318-6.552-.012-9.828-1.664-12.358-9.973-18.861-20.691-22.921C137.154 2.361 132.005 1.371 127 0h-19c-6.489 1.125-13.18.892-19.518 3.066-26.989 9.26-52.288 21.313-72.367 42.43C8.304 53.71 1.979 62.578 0 74v10c1.339 6.89 4.779 12.642 9.492 17.741 6.587 7.126 13.894 13.393 21.985 18.751 4.582 3.035 8.95 6.375 13.47 9.497 2.766 1.911 2.795 3.233-.307 4.868-7.229 3.811-14.188 8.123-20.498 13.312-6.297 5.179-12.422 10.588-15.241 18.72C4.196 180.458 9.561 191.693 22 194h11c11.513-.915 20.282-6.682 27.247-15.535 9.112-11.583 10.986-24.779 7.857-38.759-.868-3.877-.239-6.072 3.333-7.476 1.761-.691 3.165-2.304 5.312-2.394.217 2.505-.985 4.563-.486 6.741.626 5.615.492 11.24.102 16.869.143 4.66 2.081 8.744 4.372 12.609 4.068 6.86 13.308 7.172 17.923.685 2.986-4.198 5.132-8.853 7.304-14.332-.511 3.862.058 6.942 1.186 9.879 2.299 5.981 7.31 7.337 12.287 3.38 2.912-2.314 5.074-5.271 6.844-8.51 5.348-9.786 10.736-19.545 15.105-29.838 1.645-3.87 3.275-7.791 5.502-12.719 1.094 5.369 2.264 9.428 4.368 12.99 2.229 3.771 1.558 6.518-.946 9.924-4.244 5.777-9.97 10.312-13.633 16.502-3.412 5.769-1.234 10.027 5.457 10.114 9.997.13 18.528-3.573 25.029-11.349 1.604-1.918 2.786-4.164 2.602-6.842-.639-3.19-.556-6.393-.16-9.603.237-2.799-2.232-5.635-.545-8.253 4.348-6.749 8.072-13.875 12.297-21.107 1.875 3.498 1.606 7.142 4.012 9.695 2.309 1.758 4.99 3.404 2.047 6.75-2.105 1.876-4.171 3.812-6.059 5.918-4.187 4.672-7.219 9.987-8.252 16.235-1.017 6.146 2.865 10.746 8.389 10.194 14.609-1.457 24.73-13.844 23.154-28.494-.232-2.155.104-3.51 2.356-4.144 10.263-2.881 20.442-2.431 30.431 1.042 7.902 2.749 12.805 8.621 15.621 16.355 1.891 1.351 3.698 3.647 5.944.465v-5c-3.393-12.025-11.307-19.603-23.255-22.701zM36.113 179.789c-3.641 1.301-7.717 2.529-10.818-.53-3.264-3.22-1.801-7.522-.587-11.214 1.689-5.136 5.084-9.354 9.149-12.811 5.55-4.724 11.474-9 17.71-12.797 4.843-2.948 5.146-2.74 5.536 3.086.077 1.158.134 2.318.172 2.979.138 13.986-8.628 26.807-21.162 31.287zm72.022-62.242c-2.985 10.905-7.123 21.41-11.758 31.717-.61 1.356-1.384 2.651-2.185 3.909-.616.968-1.288 2.241-2.579 2.082-1.526-.188-1.984-1.784-2.269-2.979-.614-2.57-.889-5.224-1.174-7.032.682-12.295 4.524-22.531 11.702-31.5.104-.13.199-.271.321-.382 2.335-2.098 5.045-5.351 7.993-3.807 3.235 1.693.666 5.375-.051 7.992zm36.998 38.476l11.889-13.623c-.418 7.436-5.403 11.162-11.889 13.623zm36.801-8.269c.494-7.477 4.558-12.623 9.519-17.646 3.026 7.865-.818 14.968-9.519 17.646z" fill="#CC6598"/><path d="M77.237 153.918c-1.348-5.953-.777-11.904.025-17.855 1.163 5.953 1.225 11.905-.025 17.855z" fill="#B06B8B"/><path d="M188.812 123.943c.01-2.985-2.543-5.062-2.828-7.942 3.756 1.645 5.47 4.02 2.828 7.942z" fill="#B27495"/><path d="M168.758 136.034c.578 3.3.725 6.602.057 9.909-1.333-3.297-1.256-6.599-.057-9.909z" fill="#AA6A87"/></svg>